<svg width="512" height="512" viewBox="0 0 512 512" fill="none" xmlns="http://www.w3.org/2000/svg">
  <defs>
    <linearGradient id="bgGradient" x1="0%" y1="0%" x2="0%" y2="100%">
      <stop offset="0%" style="stop-color:#FF6B9D" />
      <stop offset="100%" style="stop-color:#D6336C" />
    </linearGradient>
  </defs>
  <rect width="512" height="512" rx="100" fill="url(#bgGradient)"/>

  <path d="M256 420C256 420 150 320 150 210C150 151.459 197.459 104 256 104C314.541 104 362 151.459 362 210C362 320 256 420 256 420ZM256 120C206.294 120 166 160.294 166 210C166 300 256 390 256 390C256 390 346 300 346 210C346 160.294 305.706 120 256 120Z" fill="white"/>

  <g transform="translate(256, 235) rotate(-30) translate(-50, -80)">
    <path d="M10 0H90C95.5228 0 100 4.47715 100 10V45C95 45 90 50 90 55C90 60 95 65 100 65V150C100 155.523 95.5228 160 90 160H10C4.47715 160 0 155.523 0 150V65C5 65 10 60 10 55C10 50 5 45 0 45V10C0 4.47715 4.47715 0 10 0Z" fill="white"/>
    
    <line x1="20" y1="40" x2="80" y2="40" stroke="#D6336C" stroke-width="6" stroke-dasharray="8 8" stroke-linecap="round"/>
    
    <path d="M50 75L56.4 88.2L71 90.3L60.5 100.5L63 115L50 108.2L37 115L39.5 100.5L29 90.3L43.6 88.2L50 75Z" fill="#D6336C"/>
  </g>
</svg>